<svg width="362" height="240" viewBox="0 0 362 240" fill="none" xmlns="http://www.w3.org/2000/svg">
<g clip-path="url(#clip0)">
<path opacity="0.1" d="M361.608 100.429C359.411 109.054 348.134 113.378 341.815 119.813C329.909 131.941 334.546 149.652 342.1 163.836C344.629 168.585 347.498 173.613 346.427 178.706C345.122 184.936 338.184 189.489 330.898 191.904C317.623 196.301 301.724 195.253 289.521 189.17C278.976 183.915 271.422 175.382 260.698 170.35C242.748 161.957 219.902 165.141 200.409 170.911C186.622 175.002 171.545 180.324 157.843 176.053C148.203 173.044 141.537 165.72 137.905 157.974C136.154 154.226 134.88 150.169 131.533 147.2C129.542 145.432 126.944 144.179 124.286 143.125C99.9856 133.473 69.2883 138.642 45.6995 127.936C29.763 120.707 19.5569 107.072 15.0402 92.8508C10.5234 78.63 11.0481 63.7197 12.1955 49.0729C13.011 38.6547 14.4744 27.5562 22.7746 19.5219C31.5552 11.0249 46.6225 7.87801 60.2454 9.48058C73.8683 11.0831 86.211 16.853 97.0746 23.631C110.666 32.1065 123.239 42.6565 139.906 46.0884C151.256 48.4263 163.194 47.1455 174.902 46.7012C194.473 45.9627 214.051 47.6205 233.512 49.4099C242.994 50.2894 252.508 51.2117 261.908 52.5477C264.015 52.8459 266.123 53.1676 268.23 53.5129C269.285 53.6875 270.341 53.8683 271.39 54.0552C272.212 54.1993 273.031 54.3617 273.85 54.5057C275.141 54.7488 276.429 55.0041 277.712 55.2717C281.397 56.0378 285.048 56.9049 288.661 57.8916C301.222 61.3265 311.292 67.5652 323.154 71.9225C330.885 74.763 339.315 75.5474 346.636 79.1631C355.644 83.6031 363.919 91.3586 361.608 100.429Z" fill="#21AAE2"/>
<path d="M298.064 146.391C315.91 146.391 330.377 132.367 330.377 115.066C330.377 97.7657 315.91 83.741 298.064 83.741C280.218 83.741 265.752 97.7657 265.752 115.066C265.752 132.367 280.218 146.391 298.064 146.391Z" fill="#21AAE2"/>
<path d="M263.7 137.833C281.546 137.833 296.013 123.808 296.013 106.508C296.013 89.2075 281.546 75.1828 263.7 75.1828C245.855 75.1828 231.388 89.2075 231.388 106.508C231.388 123.808 245.855 137.833 263.7 137.833Z" fill="#21AAE2"/>
<path d="M225.872 138.139C243.718 138.139 258.185 124.115 258.185 106.814C258.185 89.5139 243.718 75.4892 225.872 75.4892C208.027 75.4892 193.56 89.5139 193.56 106.814C193.56 124.115 208.027 138.139 225.872 138.139Z" fill="#21AAE2"/>
<path d="M213.577 146.391C231.423 146.391 245.889 132.367 245.889 115.066C245.889 97.7657 231.423 83.741 213.577 83.741C195.731 83.741 181.265 97.7657 181.265 115.066C181.265 132.367 195.731 146.391 213.577 146.391Z" fill="#21AAE2"/>
<path d="M192.77 149.143C210.615 149.143 225.082 135.118 225.082 117.818C225.082 100.517 210.615 86.4926 192.77 86.4926C174.924 86.4926 160.457 100.517 160.457 117.818C160.457 135.118 174.924 149.143 192.77 149.143Z" fill="#21AAE2"/>
<path d="M184.258 124.387C202.103 124.387 216.57 110.363 216.57 93.0623C216.57 75.7619 202.103 61.7371 184.258 61.7371C166.412 61.7371 151.945 75.7619 151.945 93.0623C151.945 110.363 166.412 124.387 184.258 124.387Z" fill="#21AAE2"/>
<path d="M193.715 95.6576C211.561 95.6576 226.027 81.6329 226.027 64.3325C226.027 47.0321 211.561 33.0074 193.715 33.0074C175.869 33.0074 161.402 47.0321 161.402 64.3325C161.402 81.6329 175.869 95.6576 193.715 95.6576Z" fill="#21AAE2"/>
<path d="M211.684 95.6576C229.529 95.6576 243.996 81.6329 243.996 64.3325C243.996 47.0321 229.529 33.0074 211.684 33.0074C193.838 33.0074 179.371 47.0321 179.371 64.3325C179.371 81.6329 193.838 95.6576 211.684 95.6576Z" fill="#21AAE2"/>
<path d="M222.089 82.8218C239.935 82.8218 254.401 68.797 254.401 51.4966C254.401 34.1962 239.935 20.1715 222.089 20.1715C204.243 20.1715 189.777 34.1962 189.777 51.4966C189.777 68.797 204.243 82.8218 222.089 82.8218Z" fill="#21AAE2"/>
<path d="M248.57 96.8802C266.415 96.8802 280.882 82.8555 280.882 65.5551C280.882 48.2547 266.415 34.23 248.57 34.23C230.724 34.23 216.257 48.2547 216.257 65.5551C216.257 82.8555 230.724 96.8802 248.57 96.8802Z" fill="#21AAE2"/>
<path d="M310.359 124.387C328.205 124.387 342.672 110.363 342.672 93.0623C342.672 75.7619 328.205 61.7371 310.359 61.7371C292.514 61.7371 278.047 75.7619 278.047 93.0623C278.047 110.363 292.514 124.387 310.359 124.387Z" fill="#21AAE2"/>
<path d="M291.758 108.8C309.604 108.8 324.071 94.7752 324.071 77.4748C324.071 60.1744 309.604 46.1496 291.758 46.1496C273.913 46.1496 259.446 60.1744 259.446 77.4748C259.446 94.7752 273.913 108.8 291.758 108.8Z" fill="#21AAE2"/>
<path d="M279.779 93.2124C297.625 93.2124 312.092 79.1877 312.092 61.8873C312.092 44.5869 297.625 30.5621 279.779 30.5621C261.933 30.5621 247.467 44.5869 247.467 61.8873C247.467 79.1877 261.933 93.2124 279.779 93.2124Z" fill="#21AAE2"/>
<path d="M257.082 69.6795C274.927 69.6795 289.394 55.6548 289.394 38.3544C289.394 21.054 274.927 7.02924 257.082 7.02924C239.236 7.02924 224.769 21.054 224.769 38.3544C224.769 55.6548 239.236 69.6795 257.082 69.6795Z" fill="#21AAE2"/>
<path d="M299.325 95.6576C317.171 95.6576 331.638 81.6329 331.638 64.3325C331.638 47.0321 317.171 33.0074 299.325 33.0074C281.48 33.0074 267.013 47.0321 267.013 64.3325C267.013 81.6329 281.48 95.6576 299.325 95.6576Z" fill="#21AAE2"/>
<g opacity="0.1">
<path opacity="0.1" d="M298.064 146.391C315.91 146.391 330.377 132.367 330.377 115.066C330.377 97.7657 315.91 83.741 298.064 83.741C280.218 83.741 265.752 97.7657 265.752 115.066C265.752 132.367 280.218 146.391 298.064 146.391Z" fill="#27283F"/>
<path opacity="0.1" d="M263.7 137.833C281.546 137.833 296.013 123.808 296.013 106.508C296.013 89.2075 281.546 75.1828 263.7 75.1828C245.855 75.1828 231.388 89.2075 231.388 106.508C231.388 123.808 245.855 137.833 263.7 137.833Z" fill="#27283F"/>
<path opacity="0.1" d="M225.872 138.139C243.718 138.139 258.185 124.115 258.185 106.814C258.185 89.5139 243.718 75.4892 225.872 75.4892C208.027 75.4892 193.56 89.5139 193.56 106.814C193.56 124.115 208.027 138.139 225.872 138.139Z" fill="#27283F"/>
<path opacity="0.1" d="M213.577 146.391C231.423 146.391 245.889 132.367 245.889 115.066C245.889 97.7657 231.423 83.741 213.577 83.741C195.731 83.741 181.265 97.7657 181.265 115.066C181.265 132.367 195.731 146.391 213.577 146.391Z" fill="#27283F"/>
<path opacity="0.1" d="M192.77 149.143C210.615 149.143 225.082 135.118 225.082 117.818C225.082 100.517 210.615 86.4926 192.77 86.4926C174.924 86.4926 160.457 100.517 160.457 117.818C160.457 135.118 174.924 149.143 192.77 149.143Z" fill="#27283F"/>
<path opacity="0.1" d="M184.258 124.387C202.103 124.387 216.57 110.363 216.57 93.0623C216.57 75.7619 202.103 61.7371 184.258 61.7371C166.412 61.7371 151.945 75.7619 151.945 93.0623C151.945 110.363 166.412 124.387 184.258 124.387Z" fill="#27283F"/>
<path opacity="0.1" d="M193.715 95.6576C211.56 95.6576 226.027 81.6329 226.027 64.3325C226.027 47.0321 211.56 33.0074 193.715 33.0074C175.869 33.0074 161.402 47.0321 161.402 64.3325C161.402 81.6329 175.869 95.6576 193.715 95.6576Z" fill="#27283F"/>
<path opacity="0.1" d="M211.684 95.6576C229.529 95.6576 243.996 81.6329 243.996 64.3325C243.996 47.0321 229.529 33.0074 211.684 33.0074C193.838 33.0074 179.371 47.0321 179.371 64.3325C179.371 81.6329 193.838 95.6576 211.684 95.6576Z" fill="#27283F"/>
<path opacity="0.1" d="M222.089 82.8218C239.935 82.8218 254.401 68.797 254.401 51.4966C254.401 34.1962 239.935 20.1715 222.089 20.1715C204.243 20.1715 189.777 34.1962 189.777 51.4966C189.777 68.797 204.243 82.8218 222.089 82.8218Z" fill="#27283F"/>
<path opacity="0.1" d="M248.57 96.8802C266.415 96.8802 280.882 82.8555 280.882 65.5551C280.882 48.2547 266.415 34.23 248.57 34.23C230.724 34.23 216.257 48.2547 216.257 65.5551C216.257 82.8555 230.724 96.8802 248.57 96.8802Z" fill="#27283F"/>
<path opacity="0.1" d="M310.359 124.387C328.205 124.387 342.672 110.363 342.672 93.0623C342.672 75.7619 328.205 61.7371 310.359 61.7371C292.514 61.7371 278.047 75.7619 278.047 93.0623C278.047 110.363 292.514 124.387 310.359 124.387Z" fill="#27283F"/>
<path opacity="0.1" d="M291.758 108.8C309.604 108.8 324.071 94.7752 324.071 77.4748C324.071 60.1744 309.604 46.1496 291.758 46.1496C273.913 46.1496 259.446 60.1744 259.446 77.4748C259.446 94.7752 273.913 108.8 291.758 108.8Z" fill="#27283F"/>
<path opacity="0.1" d="M279.779 93.2124C297.625 93.2124 312.092 79.1877 312.092 61.8873C312.092 44.5869 297.625 30.5622 279.779 30.5622C261.934 30.5622 247.467 44.5869 247.467 61.8873C247.467 79.1877 261.934 93.2124 279.779 93.2124Z" fill="#27283F"/>
<path opacity="0.1" d="M257.082 69.6795C274.927 69.6795 289.394 55.6548 289.394 38.3544C289.394 21.054 274.927 7.02924 257.082 7.02924C239.236 7.02924 224.769 21.054 224.769 38.3544C224.769 55.6548 239.236 69.6795 257.082 69.6795Z" fill="#27283F"/>
<path opacity="0.1" d="M299.325 95.6576C317.171 95.6576 331.638 81.6329 331.638 64.3325C331.638 47.0321 317.171 33.0074 299.325 33.0074C281.48 33.0074 267.013 47.0321 267.013 64.3325C267.013 81.6329 281.48 95.6576 299.325 95.6576Z" fill="#27283F"/>
</g>
<path d="M282.105 169.961C282.105 169.961 301.86 153.865 292.087 130.945L282.314 127.396L271.71 159.046L282.105 169.961Z" fill="#53556E"/>
<path opacity="0.1" d="M283.158 126.306L285.497 127.154L275.085 158.228L284.169 167.764C283.417 168.49 282.949 168.87 282.949 168.87L272.551 157.955L283.158 126.306Z" fill="#27283F"/>
<path opacity="0.1" d="M184.135 239.343C281.279 239.343 360.031 226.563 360.031 210.797C360.031 195.032 281.279 182.251 184.135 182.251C86.9897 182.251 8.23823 195.032 8.23823 210.797C8.23823 226.563 86.9897 239.343 184.135 239.343Z" fill="#21AAE2"/>
<path d="M319.522 166.584C319.522 166.584 313.097 172.814 316.725 182.058C320.354 191.303 310.508 206.673 310.508 206.673L310.824 206.624C324.02 204.366 330.579 189.734 323.24 178.862C320.496 174.827 318.255 170.084 319.522 166.584Z" fill="#21AAE2"/>
<path d="M319.522 166.584C319.522 166.584 315.894 174.22 319.522 180.45C323.151 186.679 320.155 204.16 310.505 206.673" stroke="#53556E" stroke-miterlimit="10"/>
<path d="M330.968 191.781C330.968 191.781 323.635 190.65 322.968 197.021C322.301 203.391 308.865 204.274 308.865 204.274L309.117 204.436C320.208 211.484 330.81 208.931 329.21 199.561C328.619 196.077 328.667 192.578 330.968 191.781Z" fill="#21AAE2"/>
<path opacity="0.2" d="M330.968 191.781C330.968 191.781 323.635 190.65 322.968 197.021C322.301 203.391 308.865 204.274 308.865 204.274L309.117 204.436C320.208 211.484 330.81 208.931 329.21 199.561C328.619 196.077 328.667 192.578 330.968 191.781Z" fill="#FAFAFC"/>
<path d="M330.968 191.781C330.968 191.781 325.278 193.007 325.743 198.01C326.208 203.014 317.291 209.042 308.868 204.274" stroke="#53556E" stroke-miterlimit="10"/>
<path d="M192.89 136.436L195.456 146.394C195.456 146.394 213.59 148.686 225.68 147.246C227.817 146.952 229.869 146.235 231.707 145.138C232.728 144.553 234.34 144.298 236.543 145.898C240.317 148.656 258.839 170.718 255.84 193.607C255.607 195.332 254.794 196.934 253.527 198.166C252.261 199.398 250.61 200.191 248.832 200.422C245.139 200.91 241.608 202.205 238.506 204.209L229.34 210.126L323.325 208.135L313.568 196.684C313.568 196.684 306.892 191.208 301.756 190.709C300.258 190.564 299.022 189.232 298.023 187.421C292.173 176.803 285.175 166.82 277.589 157.287C272.064 150.344 267.427 143.027 267.86 138.431C268.887 127.476 267.86 109.554 267.86 109.554L248.345 107.066C248.345 107.066 250.912 130.966 227.288 136.938C203.665 142.91 192.89 136.436 192.89 136.436Z" fill="#53556E"/>
<g opacity="0.1">
<path opacity="0.1" d="M208.811 140.919C208.811 140.919 219.595 147.39 243.222 141.415C266.848 135.44 264.279 111.542 264.279 111.542L267.993 112.011C267.923 110.479 267.869 109.56 267.869 109.56L248.355 107.072C248.355 107.072 250.921 130.972 227.298 136.944C203.674 142.916 192.887 136.448 192.887 136.448L195.453 146.407C195.453 146.407 202.382 147.283 210.53 147.611L208.811 140.919Z" fill="#27283F"/>
<path opacity="0.1" d="M254.427 208.689C257.528 206.685 261.059 205.39 264.753 204.902C266.527 204.673 268.175 203.885 269.441 202.658C270.707 201.431 271.521 199.835 271.757 198.115C274.773 175.225 256.241 153.123 252.477 150.378C248.368 147.39 246.313 150.874 246.313 150.874C244.859 151.244 243.38 151.517 241.888 151.692C248.545 160.272 258.068 176.73 255.84 193.632C255.603 195.352 254.789 196.949 253.523 198.175C252.257 199.402 250.61 200.19 248.835 200.419C245.142 200.907 241.611 202.202 238.509 204.206L229.343 210.123L252.973 209.624L254.427 208.689Z" fill="#27283F"/>
</g>
<path d="M208.618 184.743C208.618 184.743 206.655 178.283 208.984 173.528C209.975 171.539 210.273 169.293 209.835 167.127C209.614 166.099 209.297 165.092 208.886 164.121" stroke="#53556E" stroke-width="2" stroke-miterlimit="10"/>
<path d="M210.353 161.115C210.353 161.905 208.874 164.203 208.874 164.203C208.874 164.203 207.404 161.905 207.404 161.115C207.404 160.734 207.56 160.37 207.837 160.101C208.115 159.832 208.491 159.681 208.883 159.681C209.276 159.681 209.652 159.832 209.929 160.101C210.207 160.37 210.363 160.734 210.363 161.115H210.353Z" fill="#21AAE2"/>
<path d="M212.799 165.499C212.357 166.164 209.828 167.313 209.828 167.313C209.828 167.313 209.876 164.608 210.318 163.943C210.421 163.779 210.557 163.636 210.717 163.524C210.878 163.412 211.06 163.332 211.253 163.289C211.446 163.246 211.646 163.241 211.841 163.274C212.036 163.308 212.222 163.379 212.388 163.483C212.554 163.588 212.697 163.723 212.808 163.882C212.919 164.041 212.996 164.22 213.034 164.409C213.073 164.597 213.072 164.791 213.031 164.979C212.991 165.167 212.912 165.345 212.799 165.503V165.499Z" fill="#21AAE2"/>
<path d="M212.692 172.988C211.962 173.344 209.184 173.099 209.184 173.099C209.184 173.099 210.631 170.785 211.361 170.43C211.535 170.345 211.724 170.294 211.918 170.28C212.111 170.267 212.306 170.29 212.49 170.349C212.675 170.408 212.846 170.502 212.993 170.625C213.14 170.748 213.261 170.897 213.348 171.066C213.435 171.234 213.488 171.417 213.502 171.605C213.516 171.793 213.492 171.981 213.431 172.16C213.371 172.339 213.274 172.504 213.147 172.647C213.02 172.79 212.866 172.907 212.692 172.991V172.988Z" fill="#21AAE2"/>
<path d="M211.295 178.648C210.637 179.12 207.856 179.331 207.856 179.331C207.856 179.331 208.88 176.812 209.538 176.344C209.854 176.136 210.24 176.055 210.617 176.117C210.993 176.179 211.33 176.38 211.557 176.678C211.784 176.976 211.884 177.347 211.835 177.714C211.786 178.081 211.592 178.416 211.295 178.648Z" fill="#21AAE2"/>
<path d="M206.721 167.473C207.306 168.024 210.037 168.597 210.037 168.597C210.037 168.597 209.37 165.968 208.773 165.417C208.489 165.165 208.115 165.03 207.73 165.041C207.346 165.051 206.981 165.207 206.712 165.475C206.444 165.742 206.294 166.101 206.294 166.474C206.294 166.847 206.444 167.205 206.712 167.473H206.721Z" fill="#21AAE2"/>
<path d="M205.173 174.098C205.903 174.453 208.681 174.208 208.681 174.208C208.681 174.208 207.233 171.894 206.503 171.539C206.153 171.368 205.747 171.339 205.374 171.458C205.002 171.577 204.693 171.835 204.517 172.175C204.34 172.515 204.31 172.908 204.433 173.269C204.556 173.631 204.822 173.93 205.173 174.101V174.098Z" fill="#21AAE2"/>
<path d="M204.578 180.744C205.236 181.216 208.017 181.427 208.017 181.427C208.017 181.427 206.993 178.908 206.336 178.44C206.02 178.232 205.633 178.151 205.257 178.213C204.88 178.275 204.543 178.476 204.316 178.774C204.089 179.072 203.99 179.443 204.038 179.81C204.087 180.177 204.281 180.512 204.578 180.744Z" fill="#21AAE2"/>
<path d="M204.348 184.111C204.348 184.111 207.935 183.416 208.89 182.487C209.844 181.559 214.149 179.938 214.63 181.096C215.11 182.254 221.087 186.195 217.019 186.891C212.951 187.586 207.455 187.81 206.273 187.353C205.09 186.897 204.348 184.111 204.348 184.111Z" fill="#F2F2F5"/>
<path opacity="0.2" d="M217.022 186.471C212.958 187.166 207.458 187.39 206.276 186.933C205.365 186.581 204.733 184.884 204.484 184.096L204.363 184.121C204.363 184.121 205.081 186.903 206.276 187.366C207.47 187.828 212.97 187.598 217.022 186.903C218.195 186.701 218.53 186.232 218.404 185.634C218.302 186.014 217.895 186.314 217.022 186.471Z" fill="#27283F"/>
<path d="M263.824 205.916C263.824 205.916 274.706 203.805 277.611 200.992C280.516 198.179 293.573 193.255 295.023 196.773C296.474 200.29 314.62 212.247 302.293 214.358C289.966 216.469 273.271 217.171 269.643 215.764C266.014 214.358 263.824 205.916 263.824 205.916Z" fill="#F2F2F5"/>
<path opacity="0.2" d="M302.281 213.049C289.954 215.161 273.259 215.862 269.63 214.456C266.867 213.383 264.946 208.236 264.187 205.843L263.824 205.916C263.824 205.916 266.001 214.358 269.627 215.764C273.252 217.171 289.944 216.469 302.277 214.358C305.84 213.745 306.857 212.317 306.472 210.509C306.172 211.689 304.929 212.599 302.281 213.049Z" fill="#27283F"/>
<path d="M337.482 145.962C337.442 147.222 337.035 148.444 336.309 149.489C335.578 148.448 335.165 147.227 335.118 145.968C335.118 144.023 335.636 142.445 336.29 142.442C336.945 142.438 337.476 144.017 337.482 145.962Z" fill="#21AAE2"/>
<path d="M248.257 144.252C248.213 145.512 247.803 146.733 247.075 147.776C246.346 146.733 245.936 145.512 245.893 144.252C245.893 142.307 246.42 140.729 247.075 140.729C247.729 140.729 248.257 142.307 248.257 144.252Z" fill="#21AAE2"/>
<path d="M345.501 178.976C346.229 180.019 346.639 181.24 346.683 182.5C345.461 182.072 344.388 181.317 343.589 180.324C342.406 178.749 341.879 177.171 342.406 176.8C342.934 176.429 344.322 177.404 345.501 178.976Z" fill="#21AAE2"/>
<path d="M307.742 160.526C307.699 161.785 307.289 163.007 306.56 164.05C305.832 163.007 305.422 161.785 305.378 160.526C305.378 158.581 305.906 157.003 306.56 157.003C307.215 157.003 307.742 158.587 307.742 160.526Z" fill="#21AAE2"/>
<path d="M285.655 148.821C285.611 150.08 285.202 151.302 284.473 152.345C283.744 151.302 283.335 150.08 283.291 148.821C283.291 146.875 283.819 145.297 284.473 145.297C285.127 145.297 285.655 146.875 285.655 148.821Z" fill="#21AAE2"/>
<path d="M271.953 155.958C272.561 157.071 272.831 158.329 272.734 159.586C271.562 159.033 270.576 158.171 269.889 157.098C268.89 155.409 268.543 153.785 269.108 153.47C269.674 153.154 270.957 154.269 271.953 155.958Z" fill="#21AAE2"/>
<path d="M261.715 188.328C260.738 189.158 259.538 189.704 258.254 189.903C258.541 188.674 259.18 187.55 260.097 186.658C261.561 185.328 263.112 184.623 263.558 185.083C264.004 185.542 263.179 186.998 261.715 188.328Z" fill="#21AAE2"/>
<path opacity="0.1" d="M261.715 188.328C260.738 189.158 259.538 189.704 258.254 189.903C258.541 188.674 259.18 187.55 260.097 186.658C261.561 185.328 263.112 184.623 263.558 185.083C264.004 185.542 263.179 186.998 261.715 188.328Z" fill="#27283F"/>
<path d="M283.212 186.33C282.234 187.161 281.034 187.707 279.751 187.905C280.038 186.676 280.676 185.552 281.593 184.66C283.057 183.33 284.609 182.625 285.054 183.085C285.5 183.544 284.675 184.997 283.212 186.33Z" fill="#21AAE2"/>
<path opacity="0.1" d="M283.212 186.33C282.234 187.161 281.034 187.707 279.751 187.905C280.038 186.676 280.676 185.552 281.593 184.66C283.057 183.33 284.609 182.625 285.054 183.085C285.5 183.544 284.675 184.997 283.212 186.33Z" fill="#27283F"/>
<path d="M287.333 207.454C286.356 208.285 285.156 208.831 283.872 209.029C284.158 207.797 284.798 206.669 285.718 205.775C287.182 204.445 288.733 203.74 289.179 204.2C289.625 204.66 288.8 206.121 287.333 207.454Z" fill="#21AAE2"/>
<path opacity="0.1" d="M287.333 207.454C286.356 208.285 285.156 208.831 283.872 209.029C284.158 207.797 284.798 206.669 285.718 205.775C287.182 204.445 288.733 203.74 289.179 204.2C289.625 204.66 288.8 206.121 287.333 207.454Z" fill="#27283F"/>
<path d="M29.5637 173.684C34.4092 180.618 32.8636 205.444 32.8636 205.444C32.8636 205.444 8.50991 197.627 3.66447 190.696C1.3378 187.366 0.470935 183.277 1.25456 179.327C2.03819 175.378 4.40812 171.892 7.84299 169.636C11.2779 167.381 15.4963 166.54 19.5703 167.3C23.6444 168.06 27.2402 170.357 29.5669 173.687L29.5637 173.684Z" fill="#21AAE2"/>
<path opacity="0.1" d="M29.5637 173.684C34.4092 180.618 32.8636 205.444 32.8636 205.444C32.8636 205.444 8.50991 197.627 3.66447 190.696C1.3378 187.366 0.470935 183.277 1.25456 179.327C2.03819 175.378 4.40812 171.892 7.84299 169.636C11.2779 167.381 15.4963 166.54 19.5703 167.3C23.6444 168.06 27.2402 170.357 29.5669 173.687L29.5637 173.684Z" fill="#27283F"/>
<path d="M7.93481 169.651C7.93481 169.651 26.185 183.312 32.9585 205.469" stroke="#53556E" stroke-miterlimit="10"/>
<path d="M37.5543 186.645C37.5543 186.645 24.5952 184.5 33.4453 205.309C33.4453 205.309 42.4503 201.982 43.152 193.702C43.2912 192.091 42.8164 190.487 41.8174 189.193C40.8185 187.898 39.3647 187.004 37.7313 186.679L37.5543 186.645Z" fill="#21AAE2"/>
<path d="M37.7439 186.624C37.7439 186.624 40.2125 198.133 33.458 205.315" stroke="#53556E" stroke-miterlimit="10"/>
<path d="M319.772 205.956C319.772 205.956 325.18 204.914 326.622 203.526C328.063 202.138 334.555 199.708 335.276 201.442C335.996 203.177 345.011 209.078 338.882 210.117C332.753 211.156 324.46 211.505 322.658 210.813C320.856 210.12 319.772 205.956 319.772 205.956Z" fill="#F2F2F5"/>
<path opacity="0.2" d="M338.892 209.477C332.763 210.518 324.469 210.865 322.668 210.172C321.296 209.642 320.341 207.108 319.962 205.922L319.782 205.959C319.782 205.959 320.863 210.123 322.668 210.819C324.472 211.514 332.763 211.165 338.892 210.123C340.662 209.817 341.167 209.118 340.978 208.223C340.817 208.803 340.2 209.253 338.892 209.477Z" fill="#27283F"/>
<path d="M298.064 139.362C315.91 139.362 330.377 125.337 330.377 108.037C330.377 90.7365 315.91 76.7118 298.064 76.7118C280.218 76.7118 265.752 90.7365 265.752 108.037C265.752 125.337 280.218 139.362 298.064 139.362Z" fill="#21AAE2"/>
<path d="M263.7 130.804C281.546 130.804 296.013 116.779 296.013 99.4786C296.013 82.1783 281.546 68.1535 263.7 68.1535C245.855 68.1535 231.388 82.1783 231.388 99.4786C231.388 116.779 245.855 130.804 263.7 130.804Z" fill="#21AAE2"/>
<path d="M225.872 131.11C243.718 131.11 258.185 117.085 258.185 99.7851C258.185 82.4847 243.718 68.4599 225.872 68.4599C208.027 68.4599 193.56 82.4847 193.56 99.7851C193.56 117.085 208.027 131.11 225.872 131.11Z" fill="#21AAE2"/>
<path d="M213.577 139.362C231.423 139.362 245.889 125.337 245.889 108.037C245.889 90.7365 231.423 76.7118 213.577 76.7118C195.731 76.7118 181.265 90.7365 181.265 108.037C181.265 125.337 195.731 139.362 213.577 139.362Z" fill="#21AAE2"/>
<path d="M192.77 142.114C210.615 142.114 225.082 128.089 225.082 110.789C225.082 93.4881 210.615 79.4634 192.77 79.4634C174.924 79.4634 160.457 93.4881 160.457 110.789C160.457 128.089 174.924 142.114 192.77 142.114Z" fill="#21AAE2"/>
<path d="M184.258 117.358C202.103 117.358 216.57 103.333 216.57 86.033C216.57 68.7326 202.103 54.7079 184.258 54.7079C166.412 54.7079 151.945 68.7326 151.945 86.033C151.945 103.333 166.412 117.358 184.258 117.358Z" fill="#21AAE2"/>
<path d="M193.715 88.6284C211.561 88.6284 226.027 74.6037 226.027 57.3033C226.027 40.0029 211.561 25.9781 193.715 25.9781C175.869 25.9781 161.402 40.0029 161.402 57.3033C161.402 74.6037 175.869 88.6284 193.715 88.6284Z" fill="#21AAE2"/>
<path d="M211.684 88.6284C229.529 88.6284 243.996 74.6037 243.996 57.3033C243.996 40.0029 229.529 25.9781 211.684 25.9781C193.838 25.9781 179.371 40.0029 179.371 57.3033C179.371 74.6037 193.838 88.6284 211.684 88.6284Z" fill="#21AAE2"/>
<path d="M222.089 75.7925C239.935 75.7925 254.401 61.7678 254.401 44.4674C254.401 27.167 239.935 13.1423 222.089 13.1423C204.243 13.1423 189.777 27.167 189.777 44.4674C189.777 61.7678 204.243 75.7925 222.089 75.7925Z" fill="#21AAE2"/>
<path d="M248.57 89.851C266.415 89.851 280.882 75.8263 280.882 58.5259C280.882 41.2255 266.415 27.2007 248.57 27.2007C230.724 27.2007 216.257 41.2255 216.257 58.5259C216.257 75.8263 230.724 89.851 248.57 89.851Z" fill="#21AAE2"/>
<path d="M310.359 117.358C328.205 117.358 342.672 103.333 342.672 86.033C342.672 68.7326 328.205 54.7079 310.359 54.7079C292.514 54.7079 278.047 68.7326 278.047 86.033C278.047 103.333 292.514 117.358 310.359 117.358Z" fill="#21AAE2"/>
<path d="M291.758 101.771C309.604 101.771 324.071 87.7459 324.071 70.4455C324.071 53.1451 309.604 39.1204 291.758 39.1204C273.913 39.1204 259.446 53.1451 259.446 70.4455C259.446 87.7459 273.913 101.771 291.758 101.771Z" fill="#21AAE2"/>
<path d="M279.779 86.1832C297.625 86.1832 312.092 72.1585 312.092 54.8581C312.092 37.5577 297.625 23.5329 279.779 23.5329C261.933 23.5329 247.467 37.5577 247.467 54.8581C247.467 72.1585 261.933 86.1832 279.779 86.1832Z" fill="#21AAE2"/>
<path d="M257.082 62.6502C274.927 62.6502 289.394 48.6255 289.394 31.3251C289.394 14.0247 274.927 0 257.082 0C239.236 0 224.769 14.0247 224.769 31.3251C224.769 48.6255 239.236 62.6502 257.082 62.6502Z" fill="#21AAE2"/>
<path d="M299.325 88.6284C317.171 88.6284 331.638 74.6037 331.638 57.3033C331.638 40.0029 317.171 25.9781 299.325 25.9781C281.48 25.9781 267.013 40.0029 267.013 57.3033C267.013 74.6037 281.48 88.6284 299.325 88.6284Z" fill="#21AAE2"/>
<path opacity="0.1" d="M330.234 62.209C330.234 62.209 300.141 48.3742 281.932 72.8938L330.234 62.209Z" fill="#27283F"/>
<path opacity="0.1" d="M251.19 34.1809C251.19 34.1809 217.901 33.2065 211.364 62.7452L251.19 34.1809Z" fill="#27283F"/>
<path opacity="0.1" d="M209.809 98.2714C209.809 98.2714 179.716 84.4335 161.507 108.947L209.809 98.2714Z" fill="#27283F"/>
<path d="M78.1037 176.359C78.1037 176.359 79.8389 178.559 77.3008 181.874C74.7627 185.19 72.6703 188.003 73.5079 190.074C73.5079 190.074 77.3356 183.903 80.4616 183.817C83.5876 183.731 81.5299 180.07 78.1037 176.359Z" fill="#21AAE2"/>
<path opacity="0.1" d="M78.1036 176.359C78.2547 176.571 78.3739 176.804 78.4577 177.048C81.4983 180.511 83.1198 183.744 80.1961 183.826C77.4747 183.903 74.2064 188.622 73.4257 189.814C73.451 189.906 73.4816 189.997 73.5174 190.087C73.5174 190.087 77.3451 183.915 80.4711 183.829C83.597 183.744 81.5299 180.07 78.1036 176.359Z" fill="#27283F"/>
<path d="M81.3308 179.166C81.3308 179.941 81.2423 180.569 81.1317 180.569C81.021 180.569 80.9325 179.956 80.9325 179.166C80.9325 178.375 81.0432 178.755 81.1538 178.755C81.2644 178.755 81.3308 178.391 81.3308 179.166Z" fill="#FDA642"/>
<path d="M82.4371 180.088C81.7354 180.459 81.1222 180.683 81.0716 180.588C81.0211 180.493 81.5458 180.116 82.2474 179.745C82.9491 179.374 82.671 179.644 82.7247 179.745C82.7785 179.846 83.1388 179.73 82.4371 180.088Z" fill="#FDA642"/>
<path d="M68.9311 176.359C68.9311 176.359 67.1959 178.559 69.734 181.874C72.2721 185.19 74.3645 188.003 73.5269 190.074C73.5269 190.074 69.6992 183.903 66.5732 183.817C63.4472 183.731 65.5017 180.07 68.9311 176.359Z" fill="#21AAE2"/>
<path opacity="0.1" d="M68.9311 176.359C68.7801 176.571 68.6609 176.804 68.5771 177.048C65.5365 180.511 63.915 183.744 66.8387 183.826C69.5601 183.903 72.8284 188.622 73.6091 189.814C73.5838 189.906 73.5532 189.997 73.5174 190.087C73.5174 190.087 69.6897 183.915 66.5637 183.829C63.4377 183.744 65.5017 180.07 68.9311 176.359Z" fill="#27283F"/>
<path d="M65.704 179.166C65.704 179.941 65.7925 180.569 65.9031 180.569C66.0138 180.569 66.1022 179.956 66.1022 179.166C66.1022 178.375 65.9916 178.755 65.881 178.755C65.7704 178.755 65.704 178.391 65.704 179.166Z" fill="#FDA642"/>
<path d="M64.5946 180.088C65.2963 180.459 65.9095 180.683 65.96 180.588C66.0106 180.493 65.4859 180.116 64.7842 179.745C64.0825 179.374 64.3607 179.644 64.3069 179.745C64.2532 179.846 63.9055 179.73 64.5946 180.088Z" fill="#FDA642"/>
<path d="M66.2571 189.795C66.2571 189.795 71.1121 189.651 72.5786 188.64C74.0452 187.629 80.0475 186.425 80.4078 188.043C80.7682 189.661 87.7029 196.098 82.2221 196.141C76.7414 196.184 69.4874 195.314 68.0271 194.45C66.5669 193.586 66.2571 189.795 66.2571 189.795Z" fill="#F2F2F5"/>
<path opacity="0.2" d="M82.3169 195.581C76.8362 195.623 69.5822 194.753 68.122 193.889C67.0094 193.233 66.5669 190.877 66.4183 189.789H66.2571C66.2571 189.789 66.5732 193.586 68.024 194.447C69.4748 195.308 76.7382 196.181 82.219 196.138C83.7993 196.138 84.3461 195.581 84.3177 194.772C84.0996 195.265 83.5022 195.571 82.3169 195.581Z" fill="#27283F"/>
<path d="M38.7585 220.097C39.3378 219.639 39.76 219.022 39.9691 218.326C40.1271 217.621 39.8174 216.779 39.122 216.521C38.3445 216.233 37.5132 216.754 36.8842 217.284C36.2552 217.814 35.5314 218.415 34.7064 218.301C35.1304 217.929 35.4476 217.456 35.6271 216.929C35.8066 216.403 35.8422 215.84 35.7305 215.296C35.6949 215.07 35.5965 214.858 35.4461 214.683C35.013 214.235 34.2323 214.428 33.714 214.781C32.0704 215.902 31.6121 218.066 31.6026 220.014C31.4382 219.313 31.5773 218.58 31.571 217.869C31.5646 217.159 31.3623 216.337 30.7365 215.964C30.3484 215.761 29.9126 215.661 29.4722 215.672C28.7326 215.645 27.9108 215.718 27.4051 216.242C26.7729 216.892 26.9404 217.986 27.4873 218.694C28.0341 219.401 28.8622 219.858 29.6271 220.354C30.2401 220.708 30.7631 221.191 31.1569 221.767C31.2032 221.847 31.2413 221.931 31.2707 222.018H35.9012C36.9387 221.506 37.8999 220.86 38.7585 220.097Z" fill="#21AAE2"/>
<path d="M326.388 224.387C326.967 223.929 327.389 223.311 327.598 222.616C327.756 221.911 327.447 221.068 326.751 220.811C325.974 220.523 325.142 221.044 324.513 221.574C323.884 222.104 323.161 222.705 322.336 222.591C322.76 222.219 323.077 221.746 323.256 221.219C323.436 220.692 323.471 220.129 323.36 219.585C323.324 219.36 323.226 219.148 323.075 218.973C322.642 218.525 321.862 218.718 321.343 219.071C319.7 220.192 319.241 222.355 319.232 224.304C319.067 223.602 319.206 222.87 319.2 222.159C319.194 221.448 318.992 220.627 318.366 220.253C317.978 220.051 317.542 219.951 317.101 219.962C316.362 219.935 315.54 220.008 315.034 220.532C314.402 221.182 314.57 222.276 315.116 222.984C315.663 223.691 316.491 224.148 317.256 224.644C317.869 224.998 318.392 225.48 318.786 226.057C318.832 226.137 318.871 226.221 318.9 226.308H323.53C324.568 225.796 325.529 225.149 326.388 224.387Z" fill="#21AAE2"/>
</g>
<defs>
<clipPath id="clip0">
<rect width="361.032" height="239.346" fill="white" transform="translate(0.968475)"/>
</clipPath>
</defs>
</svg>
